<?xml version="1.0" standalone="no"?>
<!DOCTYPE svg PUBLIC "-//W3C//DTD SVG 20010904//EN"
 "http://www.w3.org/TR/2001/REC-SVG-20010904/DTD/svg10.dtd">
<svg version="1.0" xmlns="http://www.w3.org/2000/svg"
 width="1401.000000pt" height="1440.000000pt" viewBox="0 0 1401.000000 1440.000000"
 preserveAspectRatio="xMidYMid meet">

<g transform="translate(0.000000,1440.000000) scale(0.100000,-0.100000)"
fill="#000000" stroke="none">
<path d="M0 7200 l0 -7200 7005 0 7005 0 0 7200 0 7200 -7005 0 -7005 0 0
-7200z m7450 2575 c0 -41 -2 -45 -25 -45 -36 0 -45 -27 -45 -140 0 -102 -6
-127 -42 -167 l-20 -22 28 -37 c27 -35 29 -44 32 -153 2 -64 8 -122 14 -128 6
-7 21 -13 34 -13 22 0 24 -4 24 -45 l0 -45 -40 0 c-32 0 -48 7 -78 34 l-37 34
-5 121 -6 121 -47 48 c-26 26 -47 55 -47 64 0 9 20 33 45 54 l45 39 1 80 c1
130 14 180 57 215 26 22 47 30 74 30 l38 0 0 -45z m251 18 c48 -40 59 -78 59
-196 l0 -105 38 -28 c67 -51 69 -70 7 -126 l-45 -41 0 -100 c0 -80 -4 -109
-20 -142 -23 -48 -64 -75 -114 -75 -36 0 -36 0 -36 45 0 40 2 45 23 45 40 0
47 18 47 115 0 107 11 153 45 185 l25 24 -25 26 c-35 37 -45 79 -45 190 0 102
-7 120 -47 120 -21 0 -23 5 -23 45 l0 45 39 0 c28 0 49 -8 72 -27z m974 -87
c28 -112 68 -182 123 -218 61 -39 73 -43 237 -83 26 -7 20 -10 -55 -26 -214
-47 -265 -104 -325 -364 -6 -26 -10 -18 -29 60 -49 200 -116 265 -314 306 -34
7 -62 16 -62 19 0 3 28 12 62 19 202 42 282 122 319 325 7 36 14 64 16 63 1
-2 14 -48 28 -101z m-2405 25 c0 -8 -181 -684 -196 -733 -4 -15 -17 -18 -66
-18 -44 0 -59 3 -56 13 3 6 49 177 103 380 l99 367 58 0 c32 0 58 -4 58 -9z
m-400 -215 l0 -64 -146 -58 -146 -58 58 -27 c33 -14 98 -41 146 -60 l88 -34 0
-63 c0 -56 -2 -63 -17 -58 -10 3 -108 46 -218 94 l-200 88 -3 56 -3 55 218 96
c120 53 219 97 221 97 1 0 2 -29 2 -64z m701 -30 l214 -94 3 -58 2 -59 -212
-93 c-117 -51 -217 -92 -221 -92 -4 0 -7 28 -5 62 l3 61 137 56 c75 31 139 59
143 62 3 4 -59 33 -139 65 l-146 58 0 63 c0 35 2 63 4 63 2 0 99 -42 217 -94z
m248 -1801 c190 -45 321 -167 366 -342 8 -31 15 -68 15 -80 l0 -23 -504 0
c-450 0 -505 -2 -510 -16 -3 -9 -6 -51 -6 -94 0 -297 153 -521 400 -585 187
-49 441 11 504 119 131 223 370 390 644 449 141 30 385 30 538 -1 113 -22 226
-57 282 -86 l32 -17 0 -117 c0 -64 3 -134 6 -154 10 -60 -18 -48 -62 28 -50
86 -164 194 -252 238 -131 66 -199 81 -367 81 -129 0 -160 -3 -225 -23 -263
-82 -424 -267 -485 -557 -23 -108 -24 -320 -1 -439 66 -346 270 -597 566 -696
91 -31 306 -39 404 -16 118 28 192 70 282 160 63 64 89 98 120 163 37 78 64
105 64 65 0 -19 -27 -236 -36 -290 -4 -28 -12 -36 -61 -57 -206 -92 -534 -134
-783 -101 -397 53 -650 254 -756 601 -26 85 -28 101 -28 280 0 164 3 199 21
258 l20 67 -31 -21 c-263 -175 -582 -151 -797 61 -83 82 -136 173 -164 285
-22 87 -20 263 4 358 68 264 269 454 536 507 67 13 196 11 264 -5z"/>
<path d="M6449 7627 c-78 -33 -127 -73 -170 -141 -44 -67 -81 -160 -77 -190 3
-21 7 -21 378 -21 206 -1 383 1 393 3 24 6 16 46 -28 137 -42 86 -116 164
-193 202 -48 24 -71 28 -152 31 -81 2 -103 -1 -151 -21z"/>
</g>
</svg>
